<svg xmlns="http://www.w3.org/2000/svg" width="34.424" height="34" viewBox="0 0 34.424 34">
  <path id="iconmonstr-instagram-11" d="M17.212,3.064c4.6,0,5.141.017,6.957.1,4.664.21,6.843,2.4,7.055,6.969.083,1.792.1,2.33.1,6.869s-.017,5.077-.1,6.869c-.214,4.569-2.387,6.759-7.055,6.969-1.816.082-2.358.1-6.957.1s-5.141-.017-6.955-.1c-4.676-.211-6.843-2.407-7.055-6.97C3.118,22.077,3.1,21.54,3.1,17s.019-5.076.1-6.869c.214-4.572,2.387-6.759,7.055-6.969,1.816-.081,2.359-.1,6.955-.1Zm0-3.064c-4.674,0-5.26.02-7.1.1C3.866.385.392,3.811.1,9.99.02,11.805,0,12.383,0,17s.02,5.2.1,7.01C.39,30.184,3.858,33.615,10.115,33.9c1.837.082,2.423.1,7.1.1s5.261-.02,7.1-.1c6.245-.283,9.728-3.709,10.01-9.888.085-1.813.1-2.393.1-7.01s-.02-5.195-.1-7.008C34.04,3.824,30.567.387,24.311.1,22.473.02,21.886,0,17.212,0Zm0,8.27A8.731,8.731,0,1,0,26.05,17,8.785,8.785,0,0,0,17.212,8.27Zm0,14.4A5.667,5.667,0,1,1,22.949,17,5.7,5.7,0,0,1,17.212,22.667ZM26.4,5.886a2.04,2.04,0,1,0,2.064,2.04A2.054,2.054,0,0,0,26.4,5.886Z" fill="#bababa"/>
</svg>
