<svg xmlns="http://www.w3.org/2000/svg" width="74.601" height="56.228" viewBox="0 0 74.601 56.228">
  <g id="Grupo_49" data-name="Grupo 49" transform="translate(3075.95 195.6)">
    <path id="Caminho_65" data-name="Caminho 65" d="M35.048,152.166a17.237,17.237,0,0,1,.15-1.786,3.3,3.3,0,0,1,3.14-2.691c2.361-.047,4.721-.055,7.082-.008a3.433,3.433,0,0,1,3.376,3.454c.008.323,0,.645,0,1,.157.016.275.031.393.031,2.408,0,4.816-.008,7.223.008a.644.644,0,0,0,.622-.362c1.2-1.951,2.431-3.895,3.643-5.846a5.777,5.777,0,0,1,2.856-2.424,1.985,1.985,0,0,1,.669-.134c6.2-.008,12.4-.016,18.6.008a3.312,3.312,0,0,1,2.416,1.259,22.088,22.088,0,0,1,1.975,2.746c.968,1.456,1.881,2.951,2.8,4.446a.557.557,0,0,0,.559.3c1.432-.008,2.856-.008,4.288,0a5.722,5.722,0,0,1,5.8,5.783q.024,17.952,0,35.9a5.75,5.75,0,0,1-5.823,5.775H31.877a5.755,5.755,0,0,1-5.815-5.783q-.024-17.952,0-35.9a5.727,5.727,0,0,1,5.807-5.775C32.923,152.158,33.978,152.166,35.048,152.166Zm28.3,45.039H94.77a3.308,3.308,0,0,0,3.439-3.431q0-17.9,0-35.8a3.283,3.283,0,0,0-3.391-3.376c-1.676-.008-3.36-.016-5.036.008a1.543,1.543,0,0,1-1.456-.81c-1.33-2.156-2.691-4.28-4.013-6.436a3.521,3.521,0,0,0-3.242-1.794c-5,.008-10.009.024-15.013,0a3.722,3.722,0,0,0-3.494,1.943c-1.283,2.14-2.644,4.241-3.966,6.358a1.331,1.331,0,0,1-1.165.724q-4.922.012-9.836-.008A1.168,1.168,0,0,1,46.37,153.3c-.008-.7.008-1.4,0-2.1a1.012,1.012,0,0,0-1.015-1.1c-2.266-.016-4.54-.016-6.806,0a.986.986,0,0,0-1.023,1.078c-.008.653,0,1.306,0,1.959a1.276,1.276,0,0,1-1.456,1.456c-1.243.008-2.486,0-3.73.008a6.643,6.643,0,0,0-1.117.047,3.3,3.3,0,0,0-2.738,3.336c-.008,2.723,0,5.437,0,8.16q0,13.727.016,27.461a4.188,4.188,0,0,0,.338,1.707,3.19,3.19,0,0,0,3.147,1.912Q47.661,197.2,63.351,197.2Z" transform="translate(-3102 -339)" fill="#cdcdcd"/>
    <path id="Caminho_67" data-name="Caminho 67" d="M401.22,330.521h-2.447a18.127,18.127,0,0,1,27.1-16.752c6.3,3.722,9.214,9.419,9.143,16.776H432.56a15.628,15.628,0,0,0-6.035-13.447,15.217,15.217,0,0,0-10.8-3.3A15.711,15.711,0,0,0,401.22,330.521Z" transform="translate(-3445.385 -493.679)" fill="#cdcdcd"/>
    <path id="Caminho_68" data-name="Caminho 68" d="M102.757,331.239v12.6c-.362,0-.771.024-1.172-.016-.094-.008-.22-.189-.252-.315-.26-.952-.511-1.912-.748-2.872a.406.406,0,0,0-.464-.378c-1.007.016-2.022.016-3.029,0-.252,0-.378.063-.441.338-.228.96-.488,1.92-.74,2.88-.063.244-.142.456-.511.307.268-1,.527-2,.795-3.006l2.6-9.773c.055-.2.031-.5.354-.409a.616.616,0,0,1,.315.4c.866,3.226,1.715,6.452,2.573,9.678a.583.583,0,0,0,.2.331V330.673c.826,0,1.605-.016,2.368.016.126.008.283.212.362.354,1.22,2.25,2.423,4.5,3.635,6.759.386.716.779,1.432,1.165,2.156l.118-.024V330.7h.488v11.016l.11.024c.212-.795.433-1.589.645-2.384.748-2.809,1.487-5.61,2.243-8.419.039-.134.212-.228.33-.338.1.11.268.2.3.323q1.688,6.338,3.352,12.684c.016.055.008.118.024.252-.409,0-.81.024-1.2-.016-.11-.008-.252-.2-.283-.323-.268-.952-.519-1.912-.748-2.872-.071-.283-.2-.362-.48-.362-.991.016-1.991.016-2.982,0-.307-.008-.417.094-.488.4-.212.921-.464,1.826-.724,2.738-.047.165-.173.386-.3.425a.527.527,0,0,1-.685-.283c-1.33-2.486-2.691-4.965-4.037-7.444-.818-1.5-1.629-3-2.447-4.493C102.922,331.5,102.852,331.4,102.757,331.239Zm-4.107,2.25h-.11c-.559,2.093-1.117,4.186-1.692,6.318h3.509C99.783,337.675,99.216,335.582,98.65,333.489Zm14.557.016a.607.607,0,0,0-.118-.016c-.559,2.093-1.117,4.194-1.692,6.318h3.5C114.332,337.675,113.765,335.59,113.206,333.505Z" transform="translate(-3165.893 -511.448)" fill="#cdcdcd"/>
    <path id="Caminho_69" data-name="Caminho 69" d="M621.084,598.006h-2.424c-.039-.039-.071-.079-.11-.118.094-.1.189-.291.291-.3,1.3-.024,2.6-.016,3.816-.016-.024.779-.047,1.5-.055,2.235-.008,1.228,0,2.455,0,3.761-.842-.566-1.519-.189-2.282.15a4,4,0,0,1-5.028-1.283,8.636,8.636,0,0,1-.016-9.938,3.914,3.914,0,0,1,5.091-1.409c.409.189.834.346,1.228.559a.547.547,0,0,1,.26.362,21.142,21.142,0,0,1-.055,2.439,7.1,7.1,0,0,0-.417-.928,8.672,8.672,0,0,0-1.07-1.558,2.47,2.47,0,0,0-3.69.275,5.438,5.438,0,0,0-1,2.715,16.962,16.962,0,0,0,.173,6.012,5.2,5.2,0,0,0,.669,1.566,2.4,2.4,0,0,0,3.58.551,2.3,2.3,0,0,0,1.047-2.093C621.021,600.036,621.084,599.052,621.084,598.006Z" transform="translate(-3643.422 -751.068)" fill="#cdcdcd"/>
    <path id="Caminho_70" data-name="Caminho 70" d="M500.031,592.316h1.259V594.2c.008,2.683.016,5.366.047,8.057a3.473,3.473,0,0,0,.2,1.18,2.687,2.687,0,0,0,.708,1.047,3.316,3.316,0,0,0,3.439.22A2.61,2.61,0,0,0,507,602.34c.024-3.171.016-6.334.024-9.505v-.5c.15-.016.275-.024.456-.039v.5c0,3.124-.039,6.248.016,9.364a3.2,3.2,0,0,1-3.36,3.431,4.535,4.535,0,0,1-2.833-.685,2.943,2.943,0,0,1-1.275-2.376c-.039-3.32-.016-6.649-.024-9.969C500.008,592.489,500.024,592.41,500.031,592.316Z" transform="translate(-3538.657 -752.578)" fill="#cdcdcd"/>
    <path id="Caminho_71" data-name="Caminho 71" d="M753.9,605.817V592.7h1.369v12.66h4.784v.456Z" transform="translate(-3772.579 -752.947)" fill="#cdcdcd"/>
    <path id="Caminho_72" data-name="Caminho 72" d="M411.814,605.64H405.7V592.5h1.346v12.692h.63c1.275,0,2.549,0,3.824-.008C411.822,605.184,411.924,605.3,411.814,605.64Z" transform="translate(-3451.777 -752.763)" fill="#cdcdcd"/>
    <path id="Caminho_73" data-name="Caminho 73" d="M847.594,605.733H846.5V592.6h1.094Z" transform="translate(-3857.893 -752.855)" fill="#cdcdcd"/>
  </g>
</svg>
